<svg xmlns="http://www.w3.org/2000/svg" viewBox="0 0 63.51 55"><defs><style>.cls-1{fill:#77d8ce;}.cls-2{fill:none;stroke:#77d8ce;stroke-linecap:round;stroke-linejoin:round;stroke-width:2px;}</style></defs><title>icon</title><g id="Comms_Hex_copy" data-name="Comms Hex copy"><path class="cls-1" d="M46.48,6,61.2,31.5,46.48,57H17L2.31,31.5,17,6H46.48m1.15-2H15.88L0,31.5,15.88,59H47.63L63.51,31.5,47.63,4Z" transform="translate(0 -4)"/></g><g id="Page"><path class="cls-2" d="M30.87,16.33H45.5a1.34,1.34,0,0,1,1.33,1.33v26.6a1.33,1.33,0,0,1-1.33,1.33H17.57a1.32,1.32,0,0,1-1.33-1.33V17.66a1.33,1.33,0,0,1,1.33-1.33h4" transform="translate(0 -4)"/><path class="cls-2" d="M30.87,28.3c0,.73-.4.88-.88.33l-3.78-4.32-3.78,4.32c-.48.55-.87.4-.87-.33v-12A1.33,1.33,0,0,1,22.89,15h6.65a1.34,1.34,0,0,1,1.33,1.33Z" transform="translate(0 -4)"/><line class="cls-2" x1="34.86" y1="18.98" x2="42.84" y2="18.98"/><line class="cls-2" x1="34.86" y1="24.3" x2="42.84" y2="24.3"/><line class="cls-2" x1="20.23" y1="29.62" x2="42.84" y2="29.62"/><line class="cls-2" x1="20.23" y1="34.94" x2="42.17" y2="34.94"/></g></svg>