<svg xmlns="http://www.w3.org/2000/svg" viewBox="0 0 64 55.43"><defs><style>.cls-1{fill:#f4a738;}.cls-2{fill:none;stroke:#f4a738;stroke-linecap:round;stroke-linejoin:round;stroke-width:1.5px;}</style></defs><title>icon</title><g id="Quiz_Hex" data-name="Quiz Hex"><path class="cls-1" d="M46.85,6,61.69,31.71,46.85,57.43H17.15L2.31,31.71,17.15,6h29.7M48,4H16L0,31.71,16,59.43H48L64,31.71,48,4Z" transform="translate(0 -4)"/></g><g id="Quiz"><path class="cls-2" d="M26.33,36.62A7.49,7.49,0,0,1,30.5,22.29" transform="translate(0 -4)"/><path class="cls-2" d="M26.28,42.83a13.48,13.48,0,0,1,4.88-26.5" transform="translate(0 -4)"/><line class="cls-2" x1="28.47" y1="25.97" x2="34.46" y2="19.98"/><polygon class="cls-2" points="34.46 19.98 35.28 14.59 39.95 10 40.67 13.77 44.44 14.49 39.85 19.16 34.46 19.98"/><circle class="cls-2" cx="39.25" cy="33.72" r="8.62"/><path class="cls-2" d="M43.1,35.21l-4.18,5.57a1.08,1.08,0,0,1-1.51.21l-.12-.1-2.15-2.15" transform="translate(0 -4)"/></g></svg>