<svg xmlns="http://www.w3.org/2000/svg" viewBox="0 0 63.51 55"><defs><style>.cls-1{fill:#77d8ce;}.cls-2{fill:none;stroke:#77d8ce;stroke-linecap:round;stroke-linejoin:round;stroke-width:1.5px;}</style></defs><title>icon</title><g id="Comms_Hex_copy" data-name="Comms Hex copy"><path class="cls-1" d="M46.48,6,61.2,31.5,46.48,57H17L2.31,31.5,17,6H46.48m1.15-2H15.88L0,31.5,15.88,59H47.63L63.51,31.5,47.63,4Z" transform="translate(0 -4)"/></g><g id="Chat"><path class="cls-2" d="M33.8,43.91h2.29v3.43l4.58-3.43h6.87a2.29,2.29,0,0,0,2.29-2.29V34.75a2.28,2.28,0,0,0-2.29-2.29H33.8a2.29,2.29,0,0,0-2.29,2.29v6.87A2.3,2.3,0,0,0,33.8,43.91Z" transform="translate(0 -4)"/><circle class="cls-2" cx="21.94" cy="33.61" r="4.01"/><path class="cls-2" d="M28.39,47.34a6.83,6.83,0,0,0-12.9,0" transform="translate(0 -4)"/><circle class="cls-2" cx="43.38" cy="14.15" r="4.01"/><path class="cls-2" d="M49.83,27.88a6.83,6.83,0,0,0-12.9,0" transform="translate(0 -4)"/><line class="cls-2" x1="39.53" y1="31.89" x2="45.25" y2="31.89"/><line class="cls-2" x1="36.09" y1="35.33" x2="45.25" y2="35.33"/><path class="cls-2" d="M31.51,24.45H29.23v3.43l-4.58-3.43H17.78a2.29,2.29,0,0,1-2.29-2.29V15.29A2.28,2.28,0,0,1,17.78,13H31.51a2.28,2.28,0,0,1,2.29,2.29v6.87A2.29,2.29,0,0,1,31.51,24.45Z" transform="translate(0 -4)"/><line class="cls-2" x1="25.79" y1="12.43" x2="20.07" y2="12.43"/><line class="cls-2" x1="29.23" y1="15.87" x2="20.07" y2="15.87"/></g></svg>