<svg xmlns="http://www.w3.org/2000/svg" viewBox="0 0 64 55.43"><defs><style>.cls-1{fill:#9255e0;}.cls-2{fill:none;stroke:#9255e0;stroke-linecap:round;stroke-linejoin:round;stroke-width:1.5px;}</style></defs><title>icon</title><g id="Hex"><path class="cls-1" d="M46.85,6,61.69,31.71,46.85,57.43H17.15L2.31,31.71,17.15,6h29.7M48,4H16L0,31.71,16,59.43H48L64,31.71,48,4Z" transform="translate(0 -4)"/></g><g id="Glossary"><line class="cls-2" x1="22.65" y1="19" x2="36.65" y2="19"/><line class="cls-2" x1="22.65" y1="25" x2="27.65" y2="25"/><line class="cls-2" x1="22.65" y1="31" x2="27.65" y2="31"/><path class="cls-2" d="M27.65,41h-7a2,2,0,0,1-2-2V17a2,2,0,0,1,2-2H34.82a2,2,0,0,1,1.41.59l3.83,3.82a2,2,0,0,1,.59,1.42V24" transform="translate(0 -4)"/><circle class="cls-2" cx="38.67" cy="31" r="7"/><line class="cls-2" x1="48.65" y1="41" x2="43.62" y2="35.95"/></g></svg>