<svg xmlns="http://www.w3.org/2000/svg" viewBox="0 0 64 55.43"><defs><style>.cls-1{fill:#f4a738;}.cls-2{fill:none;stroke:#f4a738;stroke-linecap:round;stroke-linejoin:round;stroke-width:1.5px;}</style></defs><title>icon</title><g id="Quiz_Hex" data-name="Quiz Hex"><path class="cls-1" d="M46.85,6,61.69,31.71,46.85,57.43H17.15L2.31,31.71,17.15,6h29.7M48,4H16L0,31.71,16,59.43H48L64,31.71,48,4Z" transform="translate(0 -4)"/></g><g id="H5P"><path class="cls-2" d="M23.88,25.39a1.89,1.89,0,0,0,2.66.13l.13-.13.9-1a1.87,1.87,0,0,1,2.65-.13,1.85,1.85,0,0,1,.62,1.48l-.07,1.35a1.87,1.87,0,0,0,1.76,2h.21L34.09,29a1.88,1.88,0,0,1,1.35,3.27l-1,.9a1.87,1.87,0,0,0-.13,2.65l.13.14,1,.9a1.88,1.88,0,0,1-1.35,3.27L32.74,40a1.88,1.88,0,0,0-2,1.78V42l.07,1.35a1.88,1.88,0,0,1-3.27,1.35l-.9-1A1.89,1.89,0,0,0,24,43.57l-.13.14-.9,1a1.88,1.88,0,0,1-3.27-1.35L19.78,42A1.89,1.89,0,0,0,18,40h-.19l-1.35.07a1.88,1.88,0,0,1-1.35-3.27l1-.9a1.88,1.88,0,0,0,.13-2.66l-.13-.13-1-.9A1.87,1.87,0,0,1,15,29.6,1.85,1.85,0,0,1,16.46,29l1.35.07a1.88,1.88,0,0,0,2-1.78v-.19l-.07-1.35A1.88,1.88,0,0,1,23,24.38Z" transform="translate(0 -4)"/><circle class="cls-2" cx="25.27" cy="30.55" r="2.7"/><path class="cls-2" d="M40.21,19.09a.54.54,0,1,0,.54.54.54.54,0,0,0-.54-.54h0" transform="translate(0 -4)"/><path class="cls-2" d="M43.89,14.56a1.08,1.08,0,0,1,1.4.61,1.19,1.19,0,0,1,0,.79l-.72,1.84A1.09,1.09,0,0,0,44.9,19l1.54,1.24a1.07,1.07,0,0,1,.17,1.51,1.14,1.14,0,0,1-.68.4l-2,.3a1.07,1.07,0,0,0-.9.9l-.3,2a1.08,1.08,0,0,1-1.91.51l-1.24-1.54A1.09,1.09,0,0,0,38.39,24l-1.85.72a1.08,1.08,0,0,1-1.4-.61,1.05,1.05,0,0,1,0-.78l.72-1.85a1.07,1.07,0,0,0-.33-1.23L34,19a1.08,1.08,0,0,1,.51-1.9l2-.3a1.11,1.11,0,0,0,.9-.91l.3-2a1.08,1.08,0,0,1,1.91-.51L40.81,15a1.07,1.07,0,0,0,1.23.33Z" transform="translate(0 -4)"/></g></svg>