<svg xmlns="http://www.w3.org/2000/svg" viewBox="0 0 64 55.43"><defs><style>.cls-1{fill:#21a635;}.cls-2{fill:#ee7ea0;}.cls-3{fill:none;stroke:#ee7ea0;stroke-linecap:round;stroke-linejoin:round;stroke-width:1.5px;}</style></defs><title>icon</title><g id="FileType_Hex" data-name="FileType Hex"><path class="cls-1" d="M46.85,6,61.69,31.71,46.85,57.43H17.15L2.31,31.71,17.15,6h29.7M48,4H16L0,31.71,16,59.43H48L64,31.71,48,4Z" transform="translate(0 -4)"/></g><g id="Comms_Hex_copy" data-name="Comms Hex copy"><path class="cls-2" d="M46.85,6,61.69,31.71,46.85,57.43H17.15L2.31,31.71,17.15,6h29.7M48,4H16L0,31.71,16,59.43H48L64,31.71,48,4Z" transform="translate(0 -4)"/></g><g id="Link"><path class="cls-3" d="M26.43,41.09l-1.62,1.62A7.83,7.83,0,0,1,13.74,31.64l8.3-8.3A7.83,7.83,0,0,1,33.91,33.47" transform="translate(0 -4)"/><path class="cls-3" d="M35.91,18.6l1.31-1.31A7.82,7.82,0,0,1,48.28,28.36h0L40,36.66A7.82,7.82,0,0,1,28.12,26.53" transform="translate(0 -4)"/></g></svg>