<svg xmlns="http://www.w3.org/2000/svg" viewBox="0 0 64 55.43"><defs><style>.cls-1{fill:#f4a738;}.cls-2{fill:none;stroke:#f4a738;stroke-linecap:round;stroke-linejoin:round;stroke-width:1.5px;}</style></defs><title>icon</title><g id="Quiz_Hex" data-name="Quiz Hex"><path class="cls-1" d="M46.85,6,61.69,31.71,46.85,57.43H17.15L2.31,31.71,17.15,6h29.7M48,4H16L0,31.71,16,59.43H48L64,31.71,48,4Z" transform="translate(0 -4)"/></g><g id="Feedback"><ellipse class="cls-2" cx="42.2" cy="34.13" rx="8.8" ry="9.87"/><path class="cls-2" d="M39.45,36.28a2.77,2.77,0,1,1,2.75,3.09" transform="translate(0 -4)"/><path class="cls-2" d="M42.2,43.07a.58.58,0,0,1,.55.61.55.55,0,1,1-1.1,0,.58.58,0,0,1,.55-.61" transform="translate(0 -4)"/><line class="cls-2" x1="24.6" y1="23.03" x2="32.3" y2="23.03"/><line class="cls-2" x1="24.6" y1="29.2" x2="29" y2="29.2"/><line class="cls-2" x1="24.6" y1="35.37" x2="29" y2="35.37"/><path class="cls-2" d="M31.2,48h-11A2.34,2.34,0,0,1,18,45.53V19.63a2.34,2.34,0,0,1,2.2-2.46h5.5c0-3.41,2.46-6.17,5.5-6.17s5.5,2.76,5.5,6.17h5.5a2.34,2.34,0,0,1,2.2,2.46v3.7" transform="translate(0 -4)"/><path class="cls-2" d="M31.2,15.93a.62.62,0,1,1-.55.62h0a.59.59,0,0,1,.55-.62" transform="translate(0 -4)"/></g></svg>