<svg xmlns="http://www.w3.org/2000/svg" viewBox="0 0 63.51 55"><defs><style>.cls-1{fill:#77d8ce;}.cls-2,.cls-3{fill:none;}.cls-3{stroke:#77d8ce;stroke-miterlimit:10;}</style></defs><title>icon</title><g id="Comms_Hex_copy" data-name="Comms Hex copy"><path class="cls-1" d="M46.48,6,61.2,31.5,46.48,57H17L2.31,31.5,17,6H46.48m1.15-2H15.88L0,31.5,15.88,59H47.63L63.51,31.5,47.63,4Z" transform="translate(0 -4)"/></g><g id="Label"><path class="cls-2" d="M10.74,8.83H56V54.09H10.74Z" transform="translate(0 -4)"/><path class="cls-3" d="M44,19.85a3.79,3.79,0,0,0-3.09-1.59l-20.74,0A3.75,3.75,0,0,0,16.4,22V40.89a3.75,3.75,0,0,0,3.77,3.75l20.74,0A3.79,3.79,0,0,0,44,43.07l8.23-11.61Zm-3.09,21H20.17V22H40.91l6.69,9.43Z" transform="translate(0 -4)"/></g></svg>