<svg xmlns="http://www.w3.org/2000/svg" viewBox="0 0 352.08 116.2"><defs><style>.cls-1{font-size:80px;font-family:Baskerville;}.cls-1,.cls-3{fill:#25346b;}.cls-2{fill:#fff;stroke:#ee7ea0;stroke-miterlimit:10;stroke-width:3px;}</style></defs><g id="Layer_2" data-name="Layer 2"><g id="Mortor_hat" data-name="Mortor hat"><text class="cls-1" transform="translate(135.4 78.47)">MyPD</text><line class="cls-2" x1="122.11" x2="122.11" y2="116.2"/><path class="cls-3" d="M76.62,98.06a1.81,1.81,0,0,0-2.2,1.32l-1.81,7.25a1.82,1.82,0,0,0,1.32,2.2,1.7,1.7,0,0,0,.44,0,1.82,1.82,0,0,0,1.76-1.37l1.81-7.25A1.82,1.82,0,0,0,76.62,98.06Z"/><path class="cls-3" d="M54.41,61.73a1.81,1.81,0,0,0,.69-.14l19.95-8.26A1.81,1.81,0,1,0,73.66,50L54.41,58l-50.78-21v-.6a1.81,1.81,0,0,0-3.62,0v1.81a1.82,1.82,0,0,0,1.12,1.68l52.6,21.76A1.59,1.59,0,0,0,54.41,61.73Z"/><path class="cls-3" d="M76,80.31a1.8,1.8,0,0,0-2.43-.82,42.32,42.32,0,0,1-17.33,4V67.17a1.81,1.81,0,1,0-3.62,0V83.42C30.09,82.7,22.82,69.06,21.78,66.79V54.48a1.81,1.81,0,0,0-3.62,0v12.7a1.7,1.7,0,0,0,.13.67c.32.79,8,19.28,36.14,19.28,9.82,0,16.71-2.38,20.75-4.38A1.82,1.82,0,0,0,76,80.31Z"/><path class="cls-3" d="M81.62,99.82a1.81,1.81,0,0,0-1.81,1.81v5.44a1.81,1.81,0,0,0,3.62,0v-5.44A1.81,1.81,0,0,0,81.62,99.82Z"/><path class="cls-3" d="M107,34.53a1.81,1.81,0,0,0-1.81,1.81v.6l-21.76,9V42.62l24.27-10a1.81,1.81,0,0,0,1.12-1.68,1.83,1.83,0,0,0-1.12-1.68L55.11,7.46a1.86,1.86,0,0,0-1.39,0L1.12,29.22a1.82,1.82,0,0,0,0,3.36l52.6,21.76a1.85,1.85,0,0,0,.69.14,1.81,1.81,0,0,0,.69-.14l19-7.87a1.81,1.81,0,0,0-1.39-3.35L54.41,50.7,6.56,30.9,54.41,11.1l47.85,19.8L81.44,39.52,61.5,32.07a4.19,4.19,0,0,0,.17-1.17c0-3-3.19-5.44-7.25-5.44s-7.25,2.39-7.25,5.44,3.19,5.44,7.25,5.44a8.79,8.79,0,0,0,4.69-1.29l20.7,7.73v5.81h0V87.46a5.44,5.44,0,1,0,3.62,0V77.16a21.91,21.91,0,0,0,7.15-9.4,1.7,1.7,0,0,0,.1-.59V54.47a1.81,1.81,0,0,0-3.62,0V66.83a18.36,18.36,0,0,1-3.63,5.48V49.81l24.27-10a1.81,1.81,0,0,0,1.12-1.68V36.33A1.81,1.81,0,0,0,107,34.53Zm-52.6-1.82c-2.21,0-3.63-1.07-3.63-1.81s1.41-1.81,3.63-1.81S58,30.16,58,30.9,56.63,32.71,54.41,32.71ZM81.62,94.38a1.81,1.81,0,1,1,1.81-1.81A1.81,1.81,0,0,1,81.62,94.38Z"/><path class="cls-3" d="M88.82,99.38a1.81,1.81,0,0,0-3.52.88l1.81,7.25a1.81,1.81,0,0,0,1.76,1.37,2.2,2.2,0,0,0,.44,0,1.82,1.82,0,0,0,1.32-2.2Z"/></g></g></svg>