<svg xmlns="http://www.w3.org/2000/svg" viewBox="0 0 64 55.43"><defs><style>.cls-1{fill:#f4a738;}.cls-2{fill:none;stroke:#f4a738;stroke-miterlimit:10;stroke-width:2px;}</style></defs><title>icon</title><g id="Quiz_Hex" data-name="Quiz Hex"><path class="cls-1" d="M46.85,6,61.69,31.71,46.85,57.43H17.15L2.31,31.71,17.15,6h29.7M48,4H16L0,31.71,16,59.43H48L64,31.71,48,4Z" transform="translate(0 -4)"/></g><g id="Choice"><path class="cls-1" d="M23,25l5.09-6.79A1.3,1.3,0,1,0,26,16.64l-4.2,5.59L19,19.39a1.3,1.3,0,0,0-1.84,1.84L21,25.14a1.32,1.32,0,0,0,1.87,0Z" transform="translate(0 -4)"/><path class="cls-1" d="M45.11,20.76l2.53-2.53a1.3,1.3,0,0,0-1.84-1.85l-2.54,2.54-2.54-2.54a1.3,1.3,0,1,0-1.84,1.85l2.53,2.53L38.88,23.3a1.3,1.3,0,0,0,0,1.84,1.33,1.33,0,0,0,1.85,0l2.53-2.53,2.54,2.53a1.32,1.32,0,0,0,1.84,0,1.3,1.3,0,0,0,0-1.84Z" transform="translate(0 -4)"/><path class="cls-2" d="M40.3,35l-6.62-2.38V25.52a2.61,2.61,0,0,0-5.22,0v11l-1.07-1.49a2.07,2.07,0,0,0-1.57-.73l-1.29,0a1.93,1.93,0,0,0-1.93,1.92,2,2,0,0,0,.23.92L27.71,46a1.88,1.88,0,0,0,1.67,1H37.7a1.91,1.91,0,0,0,1.8-1.29l.78-3.4,1.09-4.8A2,2,0,0,0,40.3,35Z" transform="translate(0 -4)"/></g></svg>