<svg xmlns="http://www.w3.org/2000/svg" viewBox="0 0 63.51 55"><defs><style>.cls-1{fill:#77d8ce;}.cls-2,.cls-3{fill:none;}.cls-3{stroke:#77d8ce;stroke-miterlimit:10;}.cls-4{fill:#fff;}</style></defs><title>icon</title><g id="Comms_Hex_copy" data-name="Comms Hex copy"><path class="cls-1" d="M46.48,6,61.2,31.5,46.48,57H17L2.31,31.5,17,6H46.48m1.15-2H15.88L0,31.5,15.88,59H47.63L63.51,31.5,47.63,4Z" transform="translate(0 -4)"/></g><g id="Forum"><path class="cls-2" d="M13,10H54V51H13Z" transform="translate(0 -4)"/><path class="cls-3" d="M46,21.5H42.5v13h-20V38A1.54,1.54,0,0,0,24,39.5H41.25l6.25,6V23A1.54,1.54,0,0,0,46,21.5ZM39.5,30V16A1.54,1.54,0,0,0,38,14.5H18A1.54,1.54,0,0,0,16.5,16V37.68l6.13-6.18H38A1.54,1.54,0,0,0,39.5,30Z" transform="translate(0 -4)"/><rect class="cls-4" x="23" y="29" width="20" height="2"/><rect class="cls-4" x="37" y="27" width="12" height="2" transform="translate(71 -19) rotate(90)"/><line class="cls-2" x1="22" y1="31" x2="23" y2="30"/><line class="cls-2" x1="22" y1="28" x2="23" y2="27"/></g></svg>