<svg xmlns="http://www.w3.org/2000/svg" viewBox="0 0 64 55.43"><defs><style>.cls-1{fill:#f4a738;}.cls-2{fill:none;stroke:#f4a738;stroke-linecap:round;stroke-linejoin:round;stroke-width:1.5px;}</style></defs><title>icon</title><g id="Quiz_Hex" data-name="Quiz Hex"><path class="cls-1" d="M46.85,6,61.69,31.71,46.85,57.43H17.15L2.31,31.71,17.15,6h29.7M48,4H16L0,31.71,16,59.43H48L64,31.71,48,4Z" transform="translate(0 -4)"/></g><g id="Questionnaire"><line class="cls-2" x1="31.45" y1="29" x2="39.61" y2="29"/><line class="cls-2" x1="31.45" y1="36" x2="39.61" y2="36"/><path class="cls-2" d="M26.78,32.42a.58.58,0,1,1-.58.58.58.58,0,0,1,.58-.58" transform="translate(0 -4)"/><line class="cls-2" x1="31.45" y1="22" x2="39.61" y2="22"/><path class="cls-2" d="M26.78,25.42a.58.58,0,1,1-.58.58.58.58,0,0,1,.58-.58" transform="translate(0 -4)"/><path class="cls-2" d="M26.78,39.42a.58.58,0,1,1-.58.58.58.58,0,0,1,.58-.58" transform="translate(0 -4)"/><path class="cls-2" d="M38.45,17.83h5.83a2.33,2.33,0,0,1,2.33,2.34v24.5A2.33,2.33,0,0,1,44.28,47H21a2.33,2.33,0,0,1-2.34-2.33V20.17A2.34,2.34,0,0,1,21,17.83h5.83a5.84,5.84,0,0,1,11.67,0Z" transform="translate(0 -4)"/><path class="cls-2" d="M32.61,16.67a.58.58,0,1,1,0,1.16.58.58,0,0,1-.58-.58h0a.58.58,0,0,1,.58-.58" transform="translate(0 -4)"/></g></svg>