<svg xmlns="http://www.w3.org/2000/svg" viewBox="0 0 63.51 55"><defs><style>.cls-1{fill:#77d8ce;}.cls-2{fill:none;stroke:#77d8ce;stroke-linecap:round;stroke-linejoin:round;stroke-width:1.5px;}</style></defs><title>icon</title><g id="Comms_Hex_copy" data-name="Comms Hex copy"><path class="cls-1" d="M46.48,6,61.2,31.5,46.48,57H17L2.31,31.5,17,6H46.48m1.15-2H15.88L0,31.5,15.88,59H47.63L63.51,31.5,47.63,4Z" transform="translate(0 -4)"/></g><g id="Book"><path class="cls-2" d="M44.4,48H20.6a3.4,3.4,0,0,1-3.4-3.4" transform="translate(0 -4)"/><path class="cls-2" d="M21.73,14a4.53,4.53,0,0,0-4.53,4.53V44.6a3.4,3.4,0,0,1,3.4-3.4H43.26a1.14,1.14,0,0,0,1.14-1.13V15.13A1.14,1.14,0,0,0,43.26,14Z" transform="translate(0 -4)"/><line class="cls-2" x1="42.13" y1="44" x2="42.13" y2="37.2"/></g></svg>