<svg xmlns="http://www.w3.org/2000/svg" viewBox="0 0 64 55.43"><defs><style>.cls-1{fill:#54b2e2;}.cls-2{fill:none;stroke:#54b2e2;stroke-linecap:round;stroke-linejoin:round;stroke-width:1.5px;}</style></defs><title>icon</title><g id="Work_Hex" data-name="Work Hex"><path class="cls-1" d="M46.85,6,61.69,31.71,46.85,57.43H17.15L2.31,31.71,17.15,6h29.7M48,4H16L0,31.71,16,59.43H48L64,31.71,48,4Z" transform="translate(0 -4)"/></g><g id="Workshop"><path class="cls-2" d="M26.41,28.11v8.74h1.1a4.37,4.37,0,0,1,0,8.74H45a4.37,4.37,0,1,1,0-8.74h1.09a2.19,2.19,0,0,0,2.19-2.18V30.3a2.19,2.19,0,0,0-2.19-2.19Z" transform="translate(0 -4)"/><path class="cls-2" d="M15.49,28.11a8.74,8.74,0,0,0,8.74,8.74h2.18V28.11Z" transform="translate(0 -4)"/><rect class="cls-2" x="35.15" y="11" width="8.74" height="8.74" rx="1.46"/><line class="cls-2" x1="35.15" y1="15.37" x2="20.95" y2="15.37"/></g></svg>