<svg xmlns="http://www.w3.org/2000/svg" viewBox="0 0 64 55.43"><defs><style>.cls-1{fill:#54b2e2;}</style></defs><title>icon</title><g id="Hex"><path class="cls-1" d="M46.85,6,61.69,31.71,46.85,57.43H17.15L2.31,31.71,17.15,6h29.7M48,4H16L0,31.71,16,59.43H48L64,31.71,48,4Z" transform="translate(0 -4)"/></g><g id="Assignment"><path class="cls-1" d="M41.09,32.79a1.29,1.29,0,0,0-1.29,1.29v9a1.3,1.3,0,0,1-1.29,1.3H20.43a1.29,1.29,0,0,1-1.29-1.3V19.88a1.29,1.29,0,0,1,1.29-1.3h9a1.29,1.29,0,1,0,0-2.58h-9a3.88,3.88,0,0,0-3.88,3.88V43.12A3.88,3.88,0,0,0,20.43,47H38.51a3.88,3.88,0,0,0,3.88-3.88v-9A1.3,1.3,0,0,0,41.09,32.79Z" transform="translate(0 -4)"/><path class="cls-1" d="M27.83,32.17a.64.64,0,0,0-.46.47l-.72,2.89L25,37.15a1,1,0,0,0,0,1.37h0a1,1,0,0,0,1.36,0L28,36.89l2.85-.72a.65.65,0,0,0,.46-.45.63.63,0,0,0-.16-.63l-2.73-2.75A.65.65,0,0,0,27.83,32.17Z" transform="translate(0 -4)"/><path class="cls-1" d="M47.17,16.38a1.27,1.27,0,0,0-1.82,0l-1.17,1.16a2.59,2.59,0,0,0-2,.27l-.06-.07a3.88,3.88,0,0,0-5.47,0L32,22.41a1.29,1.29,0,0,0,1.83,1.82l4.68-4.66a1.28,1.28,0,0,1,1.82,0l-.92.91a.65.65,0,0,0,0,.91l2.74,2.74a.65.65,0,0,0,.91,0l2.29-2.29A2.57,2.57,0,0,0,46,19.36l1.17-1.16A1.29,1.29,0,0,0,47.17,16.38Z" transform="translate(0 -4)"/><path class="cls-1" d="M32.57,34.37a.64.64,0,0,0,.45-.19L41.23,26a.63.63,0,0,0,0-.91L38.5,22.31a.68.68,0,0,0-.92,0l-8.21,8.21a.66.66,0,0,0,0,.92l2.74,2.74A.66.66,0,0,0,32.57,34.37Z" transform="translate(0 -4)"/></g></svg>