<svg xmlns="http://www.w3.org/2000/svg" viewBox="0 0 63.51 55"><defs><style>.cls-1{fill:#77d8ce;}.cls-2{fill:none;stroke:#77d8ce;stroke-linecap:round;stroke-linejoin:round;stroke-width:1.5px;}</style></defs><title>icon</title><g id="Comms_Hex_copy" data-name="Comms Hex copy"><path class="cls-1" d="M46.48,6,61.2,31.5,46.48,57H17L2.31,31.5,17,6H46.48m1.15-2H15.88L0,31.5,15.88,59H47.63L63.51,31.5,47.63,4Z" transform="translate(0 -4)"/></g><g id="Booking_Form" data-name="Booking Form"><path class="cls-2" d="M24.38,37.71A4.32,4.32,0,0,1,20,41.9a4.33,4.33,0,0,1-4.47-4.15V29.41a4.29,4.29,0,0,1,4.41-4.18,4.33,4.33,0,0,1,4.48,4.14Z" transform="translate(0 -4)"/><line class="cls-2" x1="15.49" y1="27.89" x2="19.92" y2="27.89"/><line class="cls-2" x1="15.49" y1="32.34" x2="19.92" y2="32.34"/><line class="cls-2" x1="19.93" y1="37.9" x2="19.95" y2="42.33"/><line class="cls-2" x1="17.71" y1="42.34" x2="22.16" y2="42.34"/><path class="cls-2" d="M31.05,37.45H28.83a10,10,0,0,1,18.7-4.93" transform="translate(0 -4)"/><path class="cls-2" d="M33.56,16a10.18,10.18,0,0,0,11.32,2.28" transform="translate(0 -4)"/><circle class="cls-2" cx="38.83" cy="15.11" r="6.11"/><path class="cls-2" d="M36.23,35.23h7.41a.74.74,0,0,1,.74.74v6.67a1.48,1.48,0,0,1-1.48,1.48H37a1.49,1.49,0,0,1-1.49-1.48V36A.74.74,0,0,1,36.23,35.23Z" transform="translate(0 -4)"/><path class="cls-2" d="M44.38,37.45h2.23a2.23,2.23,0,0,1,2.22,2.22h0a2.23,2.23,0,0,1-2.22,2.23H44.38" transform="translate(0 -4)"/></g></svg>