<svg xmlns="http://www.w3.org/2000/svg" viewBox="0 0 64 55.43"><defs><style>.cls-1{fill:#f4a738;}.cls-2{fill:none;stroke:#f4a738;stroke-linecap:round;stroke-linejoin:round;stroke-width:1.5px;}</style></defs><title>icon</title><g id="Quiz_Hex" data-name="Quiz Hex"><path class="cls-1" d="M46.85,6,61.69,31.71,46.85,57.43H17.15L2.31,31.71,17.15,6h29.7M48,4H16L0,31.71,16,59.43H48L64,31.71,48,4Z" transform="translate(0 -4)"/></g><g id="Folder"><line class="cls-2" x1="27.83" y1="37.53" x2="18.64" y2="37.53"/><path class="cls-2" d="M46.85,24.89V20.13a2.37,2.37,0,0,0-2.37-2.37H27.83V15.38A2.37,2.37,0,0,0,25.46,13H18.32A2.37,2.37,0,0,0,16,15.38V38.84a2.69,2.69,0,0,0,5.28.69L25,26.61a2.38,2.38,0,0,1,2.29-1.72h22a2.38,2.38,0,0,1,2.38,2.37,2.57,2.57,0,0,1-.08.62" transform="translate(0 -4)"/><circle class="cls-2" cx="42.1" cy="35.15" r="9.51"/><line class="cls-2" x1="42.1" y1="30.4" x2="42.1" y2="39.91"/><line class="cls-2" x1="37.34" y1="35.15" x2="46.85" y2="35.15"/></g></svg>