<svg xmlns="http://www.w3.org/2000/svg" viewBox="0 0 64 55.43"><defs><style>.cls-1{fill:#54b2e2;}.cls-2{fill:none;stroke:#54b2e2;stroke-linecap:round;stroke-linejoin:round;stroke-width:2px;}</style></defs><title>icon</title><g id="Work_Hex" data-name="Work Hex"><path class="cls-1" d="M46.85,6,61.69,31.71,46.85,57.43H17.15L2.31,31.71,17.15,6h29.7M48,4H16L0,31.71,16,59.43H48L64,31.71,48,4Z" transform="translate(0 -4)"/></g><g id="Journal"><path class="cls-2" d="M42.87,23.61,45.74,15l2.87,8.61V45.13a2.87,2.87,0,1,1-5.74,0Z" transform="translate(0 -4)"/><line class="cls-2" x1="42.87" y1="38.26" x2="48.61" y2="38.26"/><line class="cls-2" x1="42.87" y1="19.61" x2="48.61" y2="19.61"/><path class="cls-2" d="M37.13,43.7a1.43,1.43,0,0,1-1.43,1.43H19.91V17.87H35.7a1.43,1.43,0,0,1,1.43,1.43Z" transform="translate(0 -4)"/><rect class="cls-2" x="24.22" y="21.04" width="8.61" height="4.3"/><path class="cls-2" d="M19.91,17.87H17a1.43,1.43,0,0,0-1.43,1.43V43.7A1.43,1.43,0,0,0,17,45.13h2.87" transform="translate(0 -4)"/></g></svg>