<?xml version="1.0" encoding="utf-8"?>
<!-- Generator: Adobe Illustrator 25.2.0, SVG Export Plug-In . SVG Version: 6.00 Build 0)  -->
<svg version="1.1" xmlns="http://www.w3.org/2000/svg" xmlns:xlink="http://www.w3.org/1999/xlink" x="0px" y="0px"
	 viewBox="0 0 64 64" style="enable-background:new 0 0 64 64;" xml:space="preserve">
<style type="text/css">
	.st0{display:none;}
	.st1{display:inline;}
	.st2{fill:#9255E0;}
	.st3{display:inline;fill:none;stroke:#9255E0;stroke-width:1.5;stroke-linecap:round;stroke-linejoin:round;}
	.st4{fill:#77D8CE;}
	.st5{display:inline;fill:none;}
	.st6{display:inline;fill:none;stroke:#77D8CE;stroke-miterlimit:10;}
	.st7{display:inline;fill:#FFFFFF;}
	.st8{display:inline;fill:none;stroke:#77D8CE;stroke-width:1.5;stroke-linecap:round;stroke-linejoin:round;}
	.st9{fill:#54B2E2;}
	.st10{display:inline;fill:none;stroke:#54B2E2;stroke-width:1.5;stroke-linecap:round;stroke-linejoin:round;}
	.st11{display:inline;fill:#54B2E2;}
	.st12{display:inline;fill:none;stroke:#54B2E2;stroke-width:2;stroke-linecap:round;stroke-linejoin:round;}
	.st13{fill:#F4A738;}
	.st14{display:inline;fill:none;stroke:#F4A738;stroke-width:1.5;stroke-linecap:round;stroke-linejoin:round;}
	.st15{display:inline;fill:#F4A738;}
	.st16{display:inline;fill:none;stroke:#F4A738;stroke-width:2;stroke-miterlimit:10;}
	.st17{fill:#EE7EA0;}
	.st18{fill:#81C9C6;}
	.st19{display:inline;fill:none;stroke:#77D8CE;stroke-width:2;stroke-linecap:round;stroke-linejoin:round;}
	.st20{display:inline;fill:none;stroke:#EE7EA0;stroke-width:1.5;stroke-linecap:round;stroke-linejoin:round;}
</style>
<g id="WikiType_hex" class="st0">
	<g class="st1">
		<path class="st2" d="M46.5,6l14.7,25.5L46.5,57H17L2.3,31.5L17,6H46.5 M47.6,4H15.9L0,31.5L15.9,59h31.8l15.9-27.5L47.6,4L47.6,4z
			"/>
	</g>
</g>
<g id="Glossary" class="st0">
	<line class="st3" x1="22.6" y1="23" x2="36.6" y2="23"/>
	<line class="st3" x1="22.6" y1="29" x2="27.6" y2="29"/>
	<line class="st3" x1="22.6" y1="35" x2="27.6" y2="35"/>
	<path class="st3" d="M27.6,41h-7c-1.1,0-2-0.9-2-2V17c0-1.1,0.9-2,2-2h14.2c0.5,0,1,0.2,1.4,0.6l3.8,3.8c0.4,0.4,0.6,0.9,0.6,1.4
		V24"/>
	<circle class="st3" cx="38.7" cy="35" r="7"/>
	<line class="st3" x1="48.6" y1="45" x2="43.6" y2="39.9"/>
</g>
<g id="Database" class="st0">
	<ellipse class="st3" cx="31.7" cy="21.1" rx="15.2" ry="6.1"/>
	<line class="st3" x1="46.8" y1="26.1" x2="46.8" y2="21.1"/>
	<path class="st3" d="M16.5,21.1v8.1c0,3.2,6.2,5.8,14,6.1"/>
	<path class="st3" d="M16.5,29.2v8.1c0,2.8,4.8,5.2,11.2,5.9"/>
	<path class="st3" d="M46,34L35.7,44.3l-5.1,1l1-5.1L41.9,30c1.1-1.1,2.9-1.1,4,0l0,0C47.1,31.1,47.1,32.9,46,34C46,34,46,34,46,34z
		"/>
</g>
<g id="Wiki" class="st0">
	<polyline class="st3" points="16.1,22.1 25.5,45.3 36.7,22.1 	"/>
	<line class="st3" x1="20.4" y1="22.1" x2="12.9" y2="22.1"/>
	<line class="st3" x1="39.4" y1="22.1" x2="33.8" y2="22.1"/>
	<polyline class="st3" points="27.7,22.1 37,45.3 48.3,22.1 	"/>
	<line class="st3" x1="30.1" y1="22.1" x2="24.5" y2="22.1"/>
	<line class="st3" x1="51" y1="22.1" x2="44.4" y2="22.1"/>
</g>
<g id="Comms_Hex_copy" class="st0">
	<g class="st1">
		<path class="st4" d="M46.5,6l14.7,25.5L46.5,57H17L2.3,31.5L17,6H46.5 M47.6,4H15.9L0,31.5L15.9,59h31.8l15.9-27.5L47.6,4L47.6,4z
			"/>
	</g>
</g>
<g id="Forum" class="st0">
	<path class="st5" d="M13,10h41v41H13V10z"/>
	<path class="st6" d="M46,21.5h-3.5v13h-20V38c0,0.8,0.7,1.5,1.5,1.5h17.2l6.3,6V23C47.5,22.2,46.8,21.5,46,21.5z M39.5,30V16
		c0-0.8-0.7-1.5-1.5-1.5H18c-0.8,0-1.5,0.7-1.5,1.5v21.6l6.1-6.2H38C38.8,31.5,39.5,30.8,39.5,30z"/>
	<rect x="23" y="33" class="st7" width="20" height="2"/>
	<rect x="37" y="27" transform="matrix(-1.836970e-16 1 -1 -1.836970e-16 71 -15)" class="st7" width="12" height="2"/>
	<line class="st5" x1="22" y1="35" x2="23" y2="34"/>
	<line class="st5" x1="22" y1="32" x2="23" y2="31"/>
</g>
<g id="Booking_Form" class="st0">
	<path class="st8" d="M24.4,37.7c-0.1,2.4-2,4.2-4.4,4.2c-2.4,0.1-4.4-1.8-4.5-4.1v-8.3c0.1-2.4,2-4.2,4.4-4.2
		c2.4-0.1,4.4,1.8,4.5,4.1V37.7z"/>
	<line class="st8" x1="15.5" y1="31.9" x2="19.9" y2="31.9"/>
	<line class="st8" x1="15.5" y1="36.3" x2="19.9" y2="36.3"/>
	<line class="st8" x1="19.9" y1="41.9" x2="19.9" y2="46.3"/>
	<line class="st8" x1="17.7" y1="46.3" x2="22.2" y2="46.3"/>
	<path class="st8" d="M31,37.5h-2.2c0-5.5,4.5-10,10-10c3.6,0,6.9,1.9,8.7,5.1"/>
	<path class="st8" d="M33.6,16c1.9,2,4.5,3.1,7.3,3.1c1.4,0,2.7-0.3,4-0.8"/>
	<circle class="st8" cx="38.8" cy="19.1" r="6.1"/>
	<path class="st8" d="M36.2,35.2h7.4c0.4,0,0.7,0.3,0.7,0.7v6.7c0,0.8-0.7,1.5-1.5,1.5H37c-0.8,0-1.5-0.7-1.5-1.5V36
		C35.5,35.6,35.8,35.2,36.2,35.2z"/>
	<path class="st8" d="M44.4,37.5h2.2c1.2,0,2.2,1,2.2,2.2l0,0c0,1.2-1,2.2-2.2,2.2h-2.2"/>
</g>
<g id="Chat" class="st0">
	<path class="st8" d="M33.8,43.9h2.3v3.4l4.6-3.4h6.9c1.3,0,2.3-1,2.3-2.3v-6.9c0-1.3-1-2.3-2.3-2.3H33.8c-1.3,0-2.3,1-2.3,2.3v6.9
		C31.5,42.9,32.5,43.9,33.8,43.9z"/>
	<circle class="st8" cx="21.9" cy="37.6" r="4"/>
	<path class="st8" d="M28.4,47.3c-1.2-3.6-5.1-5.4-8.7-4.2c-2,0.7-3.5,2.2-4.2,4.2"/>
	<circle class="st8" cx="43.4" cy="18.2" r="4"/>
	<path class="st8" d="M49.8,27.9c-1.2-3.6-5.1-5.4-8.7-4.2c-2,0.7-3.5,2.2-4.2,4.2"/>
	<line class="st8" x1="39.5" y1="35.9" x2="45.3" y2="35.9"/>
	<line class="st8" x1="36.1" y1="39.3" x2="45.3" y2="39.3"/>
	<path class="st8" d="M31.5,24.4h-2.3v3.4l-4.6-3.4h-6.9c-1.3,0-2.3-1-2.3-2.3v-6.9c0-1.3,1-2.3,2.3-2.3h13.7c1.3,0,2.3,1,2.3,2.3
		v6.9C33.8,23.4,32.8,24.4,31.5,24.4z"/>
	<line class="st8" x1="25.8" y1="16.4" x2="20.1" y2="16.4"/>
	<line class="st8" x1="29.2" y1="19.9" x2="20.1" y2="19.9"/>
</g>
<g id="Work_Hex" class="st0">
	<g class="st1">
		<path class="st9" d="M46.8,6l14.8,25.7L46.8,57.4H17.2L2.3,31.7L17.2,6H46.8 M48,4H16L0,31.7l16,27.7h32l16-27.7L48,4L48,4z"/>
	</g>
</g>
<g id="Workshop" class="st0">
	<path class="st10" d="M26.4,28.1v8.7h1.1c2.4,0,4.4,2,4.4,4.4s-2,4.4-4.4,4.4H45c-2.4,0-4.4-2-4.4-4.4s2-4.4,4.4-4.4h1.1
		c1.2,0,2.2-1,2.2-2.2v-4.4c0-1.2-1-2.2-2.2-2.2H26.4z"/>
	<path class="st10" d="M15.5,28.1c0,4.8,3.9,8.7,8.7,8.7h2.2v-8.7H15.5z"/>
	<path class="st10" d="M36.6,15h5.8c0.8,0,1.5,0.7,1.5,1.5v5.8c0,0.8-0.7,1.5-1.5,1.5h-5.8c-0.8,0-1.5-0.7-1.5-1.5v-5.8
		C35.2,15.7,35.8,15,36.6,15z"/>
	<line class="st10" x1="35.2" y1="19.4" x2="21" y2="19.4"/>
</g>
<g id="Assignment" class="st0">
	<path class="st11" d="M41.1,32.8c-0.7,0-1.3,0.6-1.3,1.3v9c0,0.7-0.6,1.3-1.3,1.3H20.4c-0.7,0-1.3-0.6-1.3-1.3V19.9
		c0-0.7,0.6-1.3,1.3-1.3h9c0.7,0,1.3-0.6,1.3-1.3S30.2,16,29.5,16h-9c-2.1,0-3.9,1.7-3.9,3.9v23.2c0,2.1,1.7,3.9,3.9,3.9h18.1
		c2.1,0,3.9-1.7,3.9-3.9v-9C42.4,33.4,41.8,32.8,41.1,32.8z"/>
	<path class="st11" d="M27.8,32.2c-0.2,0.1-0.4,0.2-0.5,0.5l-0.7,2.9L25,37.1c-0.4,0.4-0.4,1,0,1.4c0,0,0,0,0,0c0.4,0.4,1,0.4,1.4,0
		l1.6-1.6l2.9-0.7c0.2-0.1,0.4-0.2,0.5-0.5c0.1-0.2,0-0.5-0.2-0.6l-2.7-2.7C28.3,32.2,28.1,32.1,27.8,32.2z"/>
	<path class="st11" d="M47.2,16.4c-0.5-0.5-1.3-0.5-1.8,0l-1.2,1.2c-0.7-0.2-1.4-0.1-2,0.3l-0.1-0.1c-1.5-1.5-4-1.5-5.5,0L32,22.4
		c-0.5,0.5-0.5,1.3,0,1.8c0.5,0.5,1.3,0.5,1.8,0l4.7-4.7c0.5-0.5,1.3-0.5,1.8,0l-0.9,0.9c-0.3,0.3-0.3,0.7,0,0.9l2.7,2.7
		c0.3,0.3,0.7,0.3,0.9,0l2.3-2.3c0.7-0.7,0.9-1.6,0.7-2.5l1.2-1.2C47.7,17.7,47.7,16.9,47.2,16.4z"/>
	<path class="st11" d="M32.6,34.4c0.2,0,0.3-0.1,0.5-0.2l8.2-8.2c0.3-0.3,0.3-0.7,0-0.9l-2.7-2.7c-0.3-0.2-0.7-0.2-0.9,0l-8.2,8.2
		c-0.3,0.3-0.3,0.7,0,0.9l2.7,2.7C32.2,34.3,32.4,34.4,32.6,34.4z"/>
</g>
<g id="Journal" class="st0">
	<path class="st12" d="M42.9,23.6l2.9-8.6l2.9,8.6v21.5c0,1.6-1.3,2.9-2.9,2.9s-2.9-1.3-2.9-2.9V23.6z"/>
	<line class="st12" x1="42.9" y1="42.3" x2="48.6" y2="42.3"/>
	<line class="st12" x1="42.9" y1="23.6" x2="48.6" y2="23.6"/>
	<path class="st12" d="M37.1,43.7c0,0.8-0.6,1.4-1.4,1.4H19.9V17.9h15.8c0.8,0,1.4,0.6,1.4,1.4V43.7z"/>
	<rect x="24.2" y="25" class="st12" width="8.6" height="4.3"/>
	<path class="st12" d="M19.9,17.9H17c-0.8,0-1.4,0.6-1.4,1.4v24.4c0,0.8,0.6,1.4,1.4,1.4h2.9"/>
</g>
<g id="Quiz_Hex" class="st0">
	<g class="st1">
		<path class="st13" d="M46.8,6l14.8,25.7L46.8,57.4H17.2L2.3,31.7L17.2,6H46.8 M48,4H16L0,31.7l16,27.7h32l16-27.7L48,4L48,4z"/>
	</g>
</g>
<g id="H5P" class="st0">
	<path class="st14" d="M23.9,25.4c0.7,0.8,1.9,0.8,2.7,0.1c0,0,0.1-0.1,0.1-0.1l0.9-1c0.7-0.8,1.9-0.8,2.7-0.1
		c0.4,0.4,0.6,0.9,0.6,1.5l-0.1,1.3c-0.1,1,0.7,1.9,1.8,2c0.1,0,0.1,0,0.2,0l1.3-0.1c1-0.1,1.9,0.7,2,1.8c0,0.6-0.2,1.1-0.6,1.5
		l-1,0.9c-0.8,0.7-0.8,1.9-0.1,2.7c0,0,0.1,0.1,0.1,0.1l1,0.9c0.8,0.7,0.8,1.9,0.1,2.7c-0.4,0.4-0.9,0.6-1.5,0.6L32.7,40
		c-1-0.1-1.9,0.7-2,1.8c0,0.1,0,0.1,0,0.2l0.1,1.3c0.1,1-0.7,1.9-1.8,2c-0.6,0-1.1-0.2-1.5-0.6l-0.9-1c-0.7-0.8-1.9-0.8-2.7-0.1
		c0,0-0.1,0.1-0.1,0.1l-0.9,1c-0.7,0.8-1.9,0.8-2.7,0.1c-0.4-0.4-0.6-0.9-0.6-1.5l0.1-1.3c0.1-1-0.7-1.9-1.8-2c-0.1,0-0.1,0-0.2,0
		l-1.3,0.1c-1,0.1-1.9-0.7-2-1.8c0-0.6,0.2-1.1,0.6-1.5l1-0.9c0.8-0.7,0.8-1.9,0.1-2.7c0,0-0.1-0.1-0.1-0.1l-1-0.9
		c-0.8-0.7-0.8-1.9-0.1-2.7c0.4-0.4,0.9-0.6,1.5-0.6l1.3,0.1c1,0.1,1.9-0.7,2-1.8c0-0.1,0-0.1,0-0.2l-0.1-1.3c-0.1-1,0.7-1.9,1.8-2
		c0.6,0,1.1,0.2,1.5,0.6L23.9,25.4z"/>
	<circle class="st14" cx="25.3" cy="34.6" r="2.7"/>
	<path class="st14" d="M40.2,19.1c-0.3,0-0.5,0.2-0.5,0.5c0,0.3,0.2,0.5,0.5,0.5s0.5-0.2,0.5-0.5C40.8,19.3,40.5,19.1,40.2,19.1
		L40.2,19.1"/>
	<path class="st14" d="M43.9,14.6c0.6-0.2,1.2,0.1,1.4,0.6c0.1,0.3,0.1,0.5,0,0.8l-0.7,1.8c-0.2,0.4,0,0.9,0.3,1.2l1.5,1.2
		c0.5,0.4,0.5,1.1,0.2,1.5c-0.2,0.2-0.4,0.3-0.7,0.4l-2,0.3c-0.5,0.1-0.8,0.4-0.9,0.9l-0.3,2c-0.1,0.6-0.6,1-1.2,0.9
		c-0.3,0-0.5-0.2-0.7-0.4l-1.2-1.5c-0.3-0.4-0.8-0.5-1.2-0.3l-1.8,0.7c-0.6,0.2-1.2-0.1-1.4-0.6c-0.1-0.3-0.1-0.5,0-0.8l0.7-1.8
		c0.2-0.4,0-0.9-0.3-1.2L34,19c-0.5-0.4-0.5-1.1-0.2-1.5c0.2-0.2,0.4-0.3,0.7-0.4l2-0.3c0.5-0.1,0.8-0.4,0.9-0.9l0.3-2
		c0.1-0.6,0.6-1,1.2-0.9c0.3,0,0.5,0.2,0.7,0.4l1.2,1.5c0.3,0.4,0.8,0.5,1.2,0.3L43.9,14.6z"/>
</g>
<g id="lesson" class="st0">
	<path class="st14" d="M18.8,35.3h6.4c1.2,0,2.1,1,2.1,2.1v6.4c0,1.2-1,2.1-2.1,2.1h-6.4c-1.2,0-2.1-1-2.1-2.1v-6.4
		C16.6,36.3,17.6,35.3,18.8,35.3z"/>
	<path class="st14" d="M29.4,14h6.4c1.2,0,2.1,1,2.1,2.1v6.4c0,1.2-1,2.1-2.1,2.1h-6.4c-1.2,0-2.1-1-2.1-2.1v-6.4
		C27.3,15,28.3,14,29.4,14z"/>
	<path class="st14" d="M40.1,35.3h6.4c1.2,0,2.1,1,2.1,2.1v6.4c0,1.2-1,2.1-2.1,2.1h-6.4c-1.2,0-2.1-1-2.1-2.1v-6.4
		C38,36.3,38.9,35.3,40.1,35.3z"/>
	<path class="st14" d="M22,35.3v-2.1c0-1.2,1-2.1,2.1-2.1h17.1c1.2,0,2.1,1,2.1,2.1v2.1"/>
	<line class="st14" x1="32.6" y1="24.7" x2="32.6" y2="31.1"/>
</g>
<g id="Choice" class="st0">
	<path class="st15" d="M23,25l5.1-6.8c0.4-0.6,0.3-1.4-0.3-1.8c-0.6-0.4-1.4-0.3-1.8,0.3l-4.2,5.6L19,19.4c-0.5-0.5-1.3-0.5-1.8,0
		c-0.5,0.5-0.5,1.3,0,1.8l3.9,3.9c0.5,0.5,1.4,0.5,1.9,0C22.9,25.1,23,25,23,25z"/>
	<path class="st15" d="M45.1,20.8l2.5-2.5c0.5-0.5,0.5-1.3,0-1.8c-0.5-0.5-1.3-0.5-1.8,0l-2.5,2.5l-2.5-2.5c-0.5-0.5-1.3-0.5-1.8,0
		c-0.5,0.5-0.5,1.3,0,1.8l2.5,2.5l-2.5,2.5c-0.5,0.5-0.5,1.3,0,1.8c0.5,0.5,1.3,0.5,1.8,0l2.5-2.5l2.5,2.5c0.5,0.5,1.3,0.5,1.8,0
		c0.5-0.5,0.5-1.3,0-1.8L45.1,20.8z"/>
	<path class="st16" d="M40.3,35l-6.6-2.4v-7.1c0-1.4-1.2-2.6-2.6-2.6s-2.6,1.2-2.6,2.6v11l-1.1-1.5c-0.4-0.5-1-0.7-1.6-0.7l-1.3,0
		c-1.1,0-1.9,0.9-1.9,1.9c0,0.3,0.1,0.6,0.2,0.9l4.9,8.8c0.3,0.6,1,1,1.7,1h8.3c0.8,0,1.5-0.5,1.8-1.3l0.8-3.4l1.1-4.8
		C41.7,36.6,41.3,35.4,40.3,35z"/>
</g>
<g id="Questionnaire" class="st0">
	<line class="st14" x1="31.4" y1="33" x2="39.6" y2="33"/>
	<line class="st14" x1="31.4" y1="40" x2="39.6" y2="40"/>
	<path class="st14" d="M26.8,32.4c0.3,0,0.6,0.3,0.6,0.6s-0.3,0.6-0.6,0.6c-0.3,0-0.6-0.3-0.6-0.6S26.5,32.4,26.8,32.4"/>
	<line class="st14" x1="31.4" y1="26" x2="39.6" y2="26"/>
	<path class="st14" d="M26.8,25.4c0.3,0,0.6,0.3,0.6,0.6c0,0.3-0.3,0.6-0.6,0.6c-0.3,0-0.6-0.3-0.6-0.6
		C26.2,25.7,26.5,25.4,26.8,25.4"/>
	<path class="st14" d="M26.8,39.4c0.3,0,0.6,0.3,0.6,0.6s-0.3,0.6-0.6,0.6c-0.3,0-0.6-0.3-0.6-0.6S26.5,39.4,26.8,39.4"/>
	<path class="st14" d="M38.4,17.8h5.8c1.3,0,2.3,1,2.3,2.3v24.5c0,1.3-1,2.3-2.3,2.3H20.9c-1.3,0-2.3-1-2.3-2.3V20.2
		c0-1.3,1-2.3,2.3-2.3h5.8c0-3.2,2.6-5.8,5.8-5.8S38.4,14.6,38.4,17.8z"/>
	<path class="st14" d="M32.6,16.7c0.3,0,0.6,0.3,0.6,0.6s-0.3,0.6-0.6,0.6S32,17.6,32,17.2l0,0C32,16.9,32.3,16.7,32.6,16.7"/>
</g>
<g id="Feedback" class="st0">
	<ellipse class="st14" cx="42.2" cy="38.1" rx="8.8" ry="9.9"/>
	<path class="st14" d="M39.5,36.3c0-1.7,1.2-3.1,2.8-3.1s2.8,1.4,2.8,3.1s-1.2,3.1-2.8,3.1"/>
	<path class="st14" d="M42.2,43.1c0.3,0,0.5,0.3,0.5,0.6s-0.2,0.6-0.5,0.6s-0.5-0.3-0.5-0.6S41.9,43.1,42.2,43.1"/>
	<line class="st14" x1="24.6" y1="27" x2="32.3" y2="27"/>
	<line class="st14" x1="24.6" y1="33.2" x2="29" y2="33.2"/>
	<line class="st14" x1="24.6" y1="39.4" x2="29" y2="39.4"/>
	<path class="st14" d="M31.2,48h-11C19,48,18,46.9,18,45.5V19.6c0-1.4,1-2.5,2.2-2.5h5.5c0-3.4,2.5-6.2,5.5-6.2s5.5,2.8,5.5,6.2h5.5
		c1.2,0,2.2,1.1,2.2,2.5v3.7"/>
	<path class="st14" d="M31.2,15.9c0.3,0,0.5,0.3,0.5,0.6s-0.2,0.6-0.5,0.6c-0.3,0-0.6-0.3-0.6-0.6l0,0
		C30.6,16.2,30.9,15.9,31.2,15.9"/>
</g>
<g id="Quiz" class="st0">
	<path class="st14" d="M26.3,36.6c-3.9-1.5-5.8-5.8-4.3-9.7c1.3-3.4,4.9-5.4,8.4-4.6"/>
	<path class="st14" d="M26.3,42.8c-7.3-1.5-12-8.7-10.4-15.9c1.5-7,8.2-11.7,15.3-10.6"/>
	<line class="st14" x1="28.5" y1="30" x2="34.5" y2="24"/>
	<polygon class="st14" points="34.5,24 35.3,18.6 39.9,14 40.7,17.8 44.4,18.5 39.9,23.2 	"/>
	<circle class="st14" cx="39.3" cy="37.7" r="8.6"/>
	<path class="st14" d="M43.1,35.2l-4.2,5.6c-0.4,0.5-1,0.6-1.5,0.2c0,0-0.1-0.1-0.1-0.1l-2.2-2.2"/>
</g>
<g id="File_Hex" class="st0">
	<g class="st1">
		<path class="st17" d="M46.8,6l14.8,25.7L46.8,57.4H17.2L2.3,31.7L17.2,6H46.8 M48,4H16L0,31.7l16,27.7h32l16-27.7L48,4L48,4z"/>
	</g>
</g>
<g id="Resource_Hex">
	<g>
		<path class="st4" d="M46.8,6l14.8,25.7L46.8,57.4H17.2L2.3,31.7L17.2,6H46.8 M48,4H16L0,31.7l16,27.7h32l16-27.7L48,4L48,4z"/>
	</g>
</g>
<g id="Label" class="st0">
	<path class="st5" d="M10.7,8.8H56v45.3H10.7V8.8z"/>
	<path class="st6" d="M44,19.9c-0.7-1-1.8-1.6-3.1-1.6l-20.7,0c-2.1,0-3.8,1.7-3.8,3.8v18.9c0,2.1,1.7,3.8,3.8,3.8l20.7,0
		c1.3,0,2.4-0.6,3.1-1.6l8.2-11.6L44,19.9z M40.9,40.9H20.2V22h20.7l6.7,9.4L40.9,40.9z"/>
</g>
<g id="Section_Complete" class="st0">
	<g class="st1">
		<path class="st4" d="M46.8,6l14.8,25.7L46.8,57.4H17.2L2.3,31.7L17.2,6H46.8 M48,4H16L0,31.7l16,27.7h32l16-27.7L48,4L48,4z"/>
	</g>
	<g class="st1">
		<circle class="st18" cx="31.5" cy="31.5" r="15.5"/>
	</g>
</g>
<g id="Certificate">
	<g>
		<path class="st4" d="M24.8,51.5c-0.3,0-0.5,0-0.8-0.1c-0.7-0.2-1.3-0.6-1.7-1.2c-0.4-0.7-0.5-1.5-0.1-2.2l2.5-4.6l-4-2.1
			c-0.1,0-0.2-0.1-0.3-0.2c-1.1-1-1.1-2.5,0-3.5c0.5-0.5,1.3-0.7,2-0.7h4.4l2.7-4.7c0-0.1,0.1-0.1,0.1-0.2l-6.9-4.3
			c-1.1-0.7-1.7-1.8-1.7-3v-8.5c0-2,1.9-3.7,4.2-3.7H39c2.3,0,4.2,1.6,4.2,3.7v8.5c0,1.2-0.7,2.3-1.7,3l-7,4.4
			c0,0.1,0.1,0.1,0.1,0.2l2.7,4.7h4.4c1.6,0,2.8,1.1,2.8,2.5c0,0.7-0.3,1.3-0.8,1.8c-0.1,0-0.1,0.1-0.2,0.1l-3.6,2.2l2,4.6
			c0.3,0.6,0.3,1.2,0,1.9c-0.3,0.6-0.8,1.1-1.5,1.4c-0.4,0.1-0.7,0.2-1.1,0.2l0,0c-0.5,0-1-0.1-1.4-0.3L32,48.3l-5.8,2.9
			C25.8,51.4,25.3,51.5,24.8,51.5z M32,45.7c0.2,0,0.5,0.1,0.7,0.2l6.5,3.2l0.3,0.6l-0.3-0.6c0,0,0.1-0.1,0-0.1l-2.4-5.6
			c-0.2-0.5,0-1.1,0.5-1.4l4.3-2.6c0,0,0,0,0,0h-5.3c-0.5,0-1-0.3-1.2-0.7l-3.1-5.4c0,0,0,0,0,0l-0.1,0c0,0,0,0,0,0l-3.1,5.4
			c-0.2,0.4-0.7,0.7-1.2,0.7h-5.3c0,0,0,0,0,0c0,0,0,0,0,0l4.9,2.6c0.6,0.3,0.8,1,0.5,1.6l-3,5.5c0,0,0,0,0,0c0,0,0,0,0,0
			c0,0,0,0,0,0l0.4,0.5l-0.3-0.5l6.5-3.2C31.5,45.8,31.8,45.7,32,45.7z M33.4,29.6l6.4-4c0.4-0.2,0.6-0.6,0.6-1v-8.5
			c0-0.7-0.6-1.2-1.4-1.2h-5.6C33.4,14.9,33.4,29.6,33.4,29.6z M25,14.9c-0.8,0-1.4,0.5-1.4,1.2v8.5c0,0.4,0.2,0.8,0.6,1l6.4,4V14.9
			H25z"/>
	</g>
</g>
<g id="Page" class="st0">
	<path class="st19" d="M30.9,16.3h14.6c0.7,0,1.3,0.6,1.3,1.3v26.6c0,0.7-0.6,1.3-1.3,1.3H17.6c-0.7,0-1.3-0.6-1.3-1.3V17.7
		c0-0.7,0.6-1.3,1.3-1.3h4"/>
	<path class="st19" d="M30.9,28.3c0,0.7-0.4,0.9-0.9,0.3l-3.8-4.3l-3.8,4.3c-0.5,0.6-0.9,0.4-0.9-0.3v-12c0-0.7,0.6-1.3,1.3-1.3h6.7
		c0.7,0,1.3,0.6,1.3,1.3L30.9,28.3z"/>
	<line class="st19" x1="34.9" y1="23" x2="42.8" y2="23"/>
	<line class="st19" x1="34.9" y1="28.3" x2="42.8" y2="28.3"/>
	<line class="st19" x1="20.2" y1="33.6" x2="42.8" y2="33.6"/>
	<line class="st19" x1="20.2" y1="38.9" x2="42.2" y2="38.9"/>
</g>
<g id="File" class="st0">
	<circle class="st8" cx="39.9" cy="39" r="8.7"/>
	<line class="st8" x1="39.9" y1="34.6" x2="39.9" y2="43.3"/>
	<line class="st8" x1="35.5" y1="39" x2="44.3" y2="39"/>
	<path class="st8" d="M26.8,43.3h-8.7c-1.2,0-2.2-1-2.2-2.2v-24c0-1.2,1-2.2,2.2-2.2h15.4c0.6,0,1.1,0.2,1.5,0.6l4.2,4.2
		c0.4,0.4,0.6,1,0.6,1.5v4.5"/>
</g>
<g id="Book" class="st0">
	<path class="st8" d="M44.4,48H20.6c-1.9,0-3.4-1.5-3.4-3.4"/>
	<path class="st8" d="M21.7,14c-2.5,0-4.5,2-4.5,4.5v26.1c0-1.9,1.5-3.4,3.4-3.4h22.7c0.6,0,1.1-0.5,1.1-1.1V15.1
		c0-0.6-0.5-1.1-1.1-1.1H21.7z"/>
	<line class="st8" x1="42.1" y1="48" x2="42.1" y2="41.2"/>
</g>
<g id="Folder" class="st0">
	<line class="st14" x1="27.8" y1="41.5" x2="18.6" y2="41.5"/>
	<path class="st14" d="M46.9,24.9v-4.8c0-1.3-1.1-2.4-2.4-2.4H27.8v-2.4c0-1.3-1.1-2.4-2.4-2.4h-7.1c-1.3,0-2.4,1.1-2.4,2.4v23.5
		c0,1.5,1.2,2.7,2.7,2.7c1.2,0,2.2-0.8,2.6-2L25,26.6c0.3-1,1.2-1.7,2.3-1.7h22c1.3,0,2.4,1.1,2.4,2.4c0,0.2,0,0.4-0.1,0.6"/>
	<circle class="st14" cx="42.1" cy="39.2" r="9.5"/>
	<line class="st14" x1="42.1" y1="34.4" x2="42.1" y2="43.9"/>
	<line class="st14" x1="37.3" y1="39.2" x2="46.9" y2="39.2"/>
</g>
<g id="Link" class="st0">
	<path class="st20" d="M26.4,41.1l-1.6,1.6c-3.1,3.1-8,3.1-11.1,0c-3.1-3.1-3.1-8,0-11.1l8.3-8.3c3.1-3.1,8-3.1,11.1,0
		c2.7,2.7,3.1,7,0.8,10.1"/>
	<path class="st20" d="M35.9,18.6l1.3-1.3c3.1-3.1,8-3.1,11.1,0c3.1,3.1,3.1,8,0,11.1l0,0L40,36.7c-3.1,3.1-8,3.1-11.1,0
		c-2.7-2.7-3.1-7-0.8-10.1"/>
</g>
</svg>
