<svg xmlns="http://www.w3.org/2000/svg" viewBox="0 0 64 55.43"><defs><style>.cls-1{fill:#c1b51a;}.cls-2{fill:none;stroke:#ceba00;stroke-linecap:round;stroke-linejoin:round;stroke-width:1.5px;}</style></defs><title>ActivityIconTemplate</title><g id="Quiz_Hex" data-name="Quiz Hex"><path class="cls-1" d="M46.85,6,61.69,31.71,46.85,57.43H17.15L2.31,31.71,17.15,6h29.7M48,4H16L0,31.71,16,59.43H48L64,31.71,48,4Z" transform="translate(0 -4)"/></g><g id="lesson"><rect class="cls-2" x="16.65" y="31.33" width="10.67" height="10.67" rx="2.13"/><rect class="cls-2" x="27.31" y="10" width="10.67" height="10.67" rx="2.13"/><rect class="cls-2" x="37.98" y="31.33" width="10.67" height="10.67" rx="2.13"/><path class="cls-2" d="M22,35.33V33.2a2.13,2.13,0,0,1,2.13-2.13H41.18a2.13,2.13,0,0,1,2.13,2.13v2.13" transform="translate(0 -4)"/><line class="cls-2" x1="32.65" y1="20.67" x2="32.65" y2="27.07"/></g></svg>